# xmcd
#
# Track frame offsets:
#	150
#	16800
#	26746
#	37702
#	50638
#	60238
#	71894
#	87794
#	96719
#	119594
#	132344
#	152294
#	164069
#	175404
#	191604
#	203004
#	215379
#	228129
#
# Disc length: 3188 seconds
#
# Revision: 1
# Processed by: cddbd v1.5.2PL0 Copyright (c) Steve Scherf et al.
# Submitted via: audiograbber 1.83.01
#
DISCID=f40c7212
DTITLE=Johnny Cash - Country Christmas
DYEAR=2019
DGENRE=Country
TTITLE0=Christmas As I Knew It
TTITLE1=It Was Jesus
TTITLE2=Blue Christmas
TTITLE3=(There'll Be) Peace In The Valley (For Me)
TTITLE4=Lead Me Gently Home
TTITLE5=Lead Me Father
TTITLE6=Silent Night
TTITLE7=Who Kept The Sheep
TTITLE8=The Christmas Spirit
TTITLE9=Ringing The Bells For Jim
TTITLE10=The Ballad Of The Harp Weaver
TTITLE11=The Little Drummer Boy
TTITLE12=He'll Understand and Say Well Done
TTITLE13=The Gifts They Gave
TTITLE14=I Heard The Bells On Christmas Day
TTITLE15=Here Was A Man
TTITLE16=(There'll Be) Place In The Valley (For Me)
TTITLE17=God Will
EXTD=
EXTT0=
EXTT1=
EXTT2=
EXTT3=
EXTT4=
EXTT5=
EXTT6=
EXTT7=
EXTT8=
EXTT9=
EXTT10=
EXTT11=
EXTT12=
EXTT13=
EXTT14=
EXTT15=
EXTT16=
EXTT17=
PLAYORDER=
